# xmcd
# 
# Track frame offsets:
#     150
#     17955
#     36430
#     56372
#     80835
#     89212
# 
# Disc length: 1464
# 
# Revision: 3
# Processed by: cddbd v1.5.2PL0 Copyright (c) Steve Scherf et al.
# Submitted via: fre:ac v1.0.31
# 
DISCID=5005b606
DTITLE=Wendy Matthews - VI
DYEAR=1993
DGENRE=Folk
TTITLE0=Water Is Wide
TTITLE1=Square Moon
TTITLE2=Doomsday Lullaby
TTITLE3=Goin' Back To My Roots
TTITLE4=The Weavers Song
TTITLE5=The Day You Went Away (French Version)
EXTD=
EXTT0=
EXTT1=
EXTT2=
EXTT3=
EXTT4=
EXTT5=
PLAYORDER=
